<svg width="28" height="28" viewBox="0 0 28 28" fill="none"
  xmlns="http://www.w3.org/2000/svg">
  <path fill-rule="evenodd" clip-rule="evenodd" d="M7 4h3a3 3 0 013 3v3a3 3 0 01-3 3H7a3 3 0 01-3-3V7a3 3 0 013-3zm0 2a1 1 0 00-1 1v3a1 1 0 001 1h3a1 1 0 001-1V7a1 1 0 00-1-1H7zM7 15h3a3 3 0 013 3v3a3 3 0 01-3 3H7a3 3 0 01-3-3v-3a3 3 0 013-3zm0 2a1 1 0 00-1 1v3a1 1 0 001 1h3a1 1 0 001-1v-3a1 1 0 00-1-1H7zM18 4h3a3 3 0 013 3v3a3 3 0 01-3 3h-3a3 3 0 01-3-3V7a3 3 0 013-3zm0 2a1 1 0 00-1 1v3a1 1 0 001 1h3a1 1 0 001-1V7a1 1 0 00-1-1h-3zM18 15h3a3 3 0 013 3v3a3 3 0 01-3 3h-3a3 3 0 01-3-3v-3a3 3 0 013-3zm0 2a1 1 0 00-1 1v3a1 1 0 001 1h3a1 1 0 001-1v-3a1 1 0 00-1-1h-3z" fill="#333"/>
</svg>
